G75*
G70*
%OFA0B0*%
%FSLAX24Y24*%
%IPPOS*%
%LPD*%
%AMOC8*
5,1,8,0,0,1.08239X$1,22.5*
%
%ADD10R,0.0551X0.0630*%
%ADD11R,0.0433X0.0394*%
%ADD12R,0.0354X0.0374*%
%ADD13R,0.0394X0.0374*%
%ADD14R,0.0374X0.0394*%
%ADD15R,0.0374X0.0354*%
%ADD16R,0.0157X0.0591*%
%ADD17R,0.0472X0.0787*%
%ADD18R,0.0433X0.0236*%
%ADD19R,0.0240X0.0870*%
%ADD20R,0.0551X0.0394*%
D10*
X003851Y008424D03*
X004953Y008424D03*
D11*
X004343Y013771D03*
X003674Y013771D03*
D12*
X003713Y014853D03*
X004304Y014853D03*
X005190Y014853D03*
X005780Y014853D03*
X005850Y013821D03*
X005220Y013821D03*
X004304Y012688D03*
X003713Y012688D03*
X003713Y009605D03*
X004304Y009605D03*
X005190Y009605D03*
X005780Y009605D03*
X007453Y014853D03*
X008044Y014853D03*
X008044Y004093D03*
X007453Y004093D03*
X006764Y004093D03*
X006174Y004093D03*
D13*
X007355Y009586D03*
X007355Y010215D03*
X008044Y010215D03*
X008044Y009586D03*
X008733Y009586D03*
X008733Y010215D03*
X009422Y010215D03*
X009422Y009586D03*
D14*
X009343Y004093D03*
X008713Y004093D03*
D15*
X006666Y009605D03*
X006666Y010196D03*
X007355Y013160D03*
X007355Y013790D03*
X008044Y013790D03*
X008044Y013160D03*
X008733Y013160D03*
X008733Y013790D03*
X009422Y013790D03*
X009422Y013160D03*
X006666Y013180D03*
X006666Y013771D03*
D16*
X006597Y007686D03*
X006853Y007686D03*
X007109Y007686D03*
X007365Y007686D03*
X007621Y007686D03*
X007877Y007686D03*
X008133Y007686D03*
X008388Y007686D03*
X008644Y007686D03*
X008900Y007686D03*
X009156Y007686D03*
X009412Y007686D03*
X009412Y004832D03*
X009156Y004832D03*
X008900Y004832D03*
X008644Y004832D03*
X008388Y004832D03*
X008133Y004832D03*
X007877Y004832D03*
X007621Y004832D03*
X007365Y004832D03*
X007109Y004832D03*
X006853Y004832D03*
X006597Y004832D03*
X006341Y004832D03*
X006085Y004832D03*
X006085Y007686D03*
X006341Y007686D03*
D17*
X006229Y015778D03*
X007016Y015778D03*
X008001Y015778D03*
X005245Y015778D03*
D18*
X004973Y013062D03*
X004973Y012688D03*
X004973Y012314D03*
X005997Y012314D03*
X005997Y013062D03*
D19*
X005152Y007289D03*
X004652Y007289D03*
X004152Y007289D03*
X003652Y007289D03*
X003652Y005229D03*
X004152Y005229D03*
X004652Y005229D03*
X005152Y005229D03*
D20*
X003674Y002814D03*
X004540Y003188D03*
X004540Y002440D03*
X005642Y002814D03*
X006509Y003188D03*
X006509Y002440D03*
M02*
