G75*
G70*
%OFA0B0*%
%FSLAX24Y24*%
%IPPOS*%
%LPD*%
%AMOC8*
5,1,8,0,0,1.08239X$1,22.5*
%
%ADD10C,0.0040*%
%ADD11C,0.0050*%
%ADD12C,0.0020*%
%ADD13C,0.0080*%
%ADD14C,0.0348*%
%ADD15C,0.0079*%
%ADD16C,0.0197*%
%ADD17R,0.0010X0.0020*%
%ADD18R,0.0010X0.0040*%
%ADD19R,0.0010X0.0610*%
%ADD20R,0.0010X0.0060*%
%ADD21R,0.0010X0.0080*%
%ADD22R,0.0010X0.0090*%
%ADD23R,0.0010X0.0100*%
%ADD24R,0.0010X0.0050*%
%ADD25R,0.0010X0.0140*%
%ADD26R,0.0010X0.0180*%
%ADD27R,0.0010X0.0170*%
%ADD28R,0.0010X0.0160*%
%ADD29R,0.0010X0.1940*%
%ADD30R,0.0010X0.0030*%
%ADD31R,0.0010X0.0110*%
%ADD32R,0.0010X0.0130*%
%ADD33R,0.0010X0.0070*%
%ADD34R,0.0010X0.0150*%
%ADD35R,0.0010X0.0120*%
%ADD36R,0.0010X0.0580*%
%ADD37R,0.0010X0.0570*%
%ADD38R,0.0010X0.0560*%
%ADD39C,0.0010*%
D10*
X010092Y012405D02*
X010092Y012578D01*
X010092Y012491D02*
X010353Y012491D01*
X010353Y012681D02*
X010092Y012681D01*
X010179Y012724D02*
X010179Y012811D01*
X010223Y012854D01*
X010353Y012854D01*
X010309Y012957D02*
X010223Y012957D01*
X010179Y013001D01*
X010179Y013087D01*
X010223Y013131D01*
X010309Y013131D01*
X010353Y013087D01*
X010353Y013001D01*
X010309Y012957D01*
X010179Y012724D02*
X010223Y012681D01*
X010179Y013233D02*
X010179Y013277D01*
X010223Y013320D01*
X010179Y013363D01*
X010223Y013407D01*
X010353Y013407D01*
X010353Y013320D02*
X010223Y013320D01*
X010179Y013233D02*
X010353Y013233D01*
X010309Y013510D02*
X010266Y013553D01*
X010266Y013683D01*
X010223Y013683D02*
X010353Y013683D01*
X010353Y013553D01*
X010309Y013510D01*
X010179Y013553D02*
X010179Y013640D01*
X010223Y013683D01*
X010223Y013786D02*
X010179Y013829D01*
X010179Y013959D01*
X010266Y013916D02*
X010266Y013829D01*
X010223Y013786D01*
X010353Y013786D02*
X010353Y013916D01*
X010309Y013959D01*
X010266Y013916D01*
X010309Y014338D02*
X010353Y014382D01*
X010353Y014468D01*
X010309Y014512D01*
X010266Y014512D01*
X010223Y014468D01*
X010223Y014382D01*
X010179Y014338D01*
X010136Y014338D01*
X010092Y014382D01*
X010092Y014468D01*
X010136Y014512D01*
X010223Y014614D02*
X010309Y014614D01*
X010353Y014658D01*
X010353Y014788D01*
X010353Y014891D02*
X010092Y014891D01*
X010179Y014934D02*
X010179Y015021D01*
X010223Y015064D01*
X010353Y015064D01*
X010353Y015167D02*
X010179Y015167D01*
X010179Y015210D01*
X010223Y015254D01*
X010179Y015297D01*
X010223Y015340D01*
X010353Y015340D01*
X010353Y015254D02*
X010223Y015254D01*
X010179Y015443D02*
X010179Y015486D01*
X010353Y015486D01*
X010353Y015443D02*
X010353Y015530D01*
X010309Y015627D02*
X010223Y015627D01*
X010179Y015671D01*
X010179Y015801D01*
X010092Y015801D02*
X010353Y015801D01*
X010353Y015671D01*
X010309Y015627D01*
X010092Y015486D02*
X010049Y015486D01*
X010179Y014934D02*
X010223Y014891D01*
X010179Y014788D02*
X010179Y014658D01*
X010223Y014614D01*
D11*
X003051Y003552D02*
X003051Y003208D01*
X003051Y003380D02*
X003165Y003380D01*
X003051Y003552D02*
X003280Y003552D01*
X003413Y003494D02*
X003470Y003552D01*
X003585Y003552D01*
X003642Y003494D01*
X003642Y003437D01*
X003585Y003380D01*
X003642Y003322D01*
X003642Y003265D01*
X003585Y003208D01*
X003470Y003208D01*
X003413Y003265D01*
X003528Y003380D02*
X003585Y003380D01*
X003599Y004315D02*
X003713Y004315D01*
X003771Y004373D01*
X003771Y004659D01*
X003904Y004545D02*
X004019Y004659D01*
X004019Y004315D01*
X004133Y004315D02*
X003904Y004315D01*
X003599Y004315D02*
X003541Y004373D01*
X003541Y004659D01*
X005080Y003478D02*
X005080Y003134D01*
X005080Y003306D02*
X005195Y003306D01*
X005080Y003478D02*
X005309Y003478D01*
X005443Y003306D02*
X005672Y003306D01*
X005615Y003134D02*
X005615Y003478D01*
X005443Y003306D01*
X005400Y003922D02*
X005285Y003922D01*
X005228Y003979D01*
X005228Y004208D01*
X005285Y004266D01*
X005400Y004266D01*
X005457Y004208D01*
X005590Y004266D02*
X005590Y004094D01*
X005705Y004151D01*
X005762Y004151D01*
X005820Y004094D01*
X005820Y003979D01*
X005762Y003922D01*
X005648Y003922D01*
X005590Y003979D01*
X005457Y003979D02*
X005400Y003922D01*
X005590Y004266D02*
X005820Y004266D01*
X007277Y003618D02*
X007277Y003388D01*
X007334Y003331D01*
X007449Y003331D01*
X007506Y003388D01*
X007639Y003331D02*
X007868Y003560D01*
X007868Y003618D01*
X007811Y003675D01*
X007696Y003675D01*
X007639Y003618D01*
X007506Y003618D02*
X007449Y003675D01*
X007334Y003675D01*
X007277Y003618D01*
X007639Y003331D02*
X007868Y003331D01*
X008002Y003503D02*
X008231Y003503D01*
X008174Y003331D02*
X008174Y003675D01*
X008002Y003503D01*
X008722Y003446D02*
X008894Y003446D01*
X008951Y003503D01*
X008951Y003618D01*
X008894Y003675D01*
X008722Y003675D01*
X008722Y003331D01*
X008837Y003446D02*
X008951Y003331D01*
X009084Y003331D02*
X009314Y003560D01*
X009314Y003618D01*
X009256Y003675D01*
X009142Y003675D01*
X009084Y003618D01*
X009084Y003331D02*
X009314Y003331D01*
X008013Y008154D02*
X007898Y008154D01*
X007841Y008211D01*
X007708Y008211D02*
X007708Y008498D01*
X007841Y008440D02*
X007898Y008498D01*
X008013Y008498D01*
X008070Y008440D01*
X008070Y008383D01*
X008013Y008326D01*
X008070Y008268D01*
X008070Y008211D01*
X008013Y008154D01*
X008013Y008326D02*
X007956Y008326D01*
X007708Y008211D02*
X007650Y008154D01*
X007536Y008154D01*
X007478Y008211D01*
X007478Y008498D01*
X007447Y008892D02*
X007676Y008892D01*
X007562Y008892D02*
X007562Y009236D01*
X007447Y009121D01*
X007314Y009064D02*
X007257Y009007D01*
X007085Y009007D01*
X007199Y009007D02*
X007314Y008892D01*
X007314Y009064D02*
X007314Y009179D01*
X007257Y009236D01*
X007085Y009236D01*
X007085Y008892D01*
X006407Y008596D02*
X006407Y008252D01*
X006464Y008424D02*
X006235Y008424D01*
X006407Y008596D01*
X006102Y008539D02*
X006102Y008482D01*
X006044Y008424D01*
X006102Y008367D01*
X006102Y008310D01*
X006044Y008252D01*
X005930Y008252D01*
X005872Y008310D01*
X005739Y008310D02*
X005682Y008252D01*
X005567Y008252D01*
X005510Y008310D01*
X005510Y008539D01*
X005567Y008596D01*
X005682Y008596D01*
X005739Y008539D01*
X005872Y008539D02*
X005930Y008596D01*
X006044Y008596D01*
X006102Y008539D01*
X006044Y008424D02*
X005987Y008424D01*
X005946Y008892D02*
X005831Y008892D01*
X005774Y008949D01*
X005774Y009064D01*
X005946Y009064D01*
X006003Y009007D01*
X006003Y008949D01*
X005946Y008892D01*
X005774Y009064D02*
X005889Y009179D01*
X006003Y009236D01*
X005641Y009179D02*
X005583Y009236D01*
X005469Y009236D01*
X005411Y009179D01*
X005411Y008949D01*
X005469Y008892D01*
X005583Y008892D01*
X005641Y008949D01*
X006453Y010542D02*
X006568Y010542D01*
X006625Y010599D01*
X006758Y010542D02*
X006987Y010542D01*
X006873Y010542D02*
X006873Y010886D01*
X006758Y010771D01*
X006625Y010829D02*
X006568Y010886D01*
X006453Y010886D01*
X006396Y010829D01*
X006396Y010599D01*
X006453Y010542D01*
X007135Y012290D02*
X007307Y012290D01*
X007364Y012347D01*
X007364Y012577D01*
X007307Y012634D01*
X007135Y012634D01*
X007135Y012290D01*
X007497Y012290D02*
X007726Y012290D01*
X007612Y012290D02*
X007612Y012634D01*
X007497Y012519D01*
X007774Y014140D02*
X007946Y014140D01*
X008003Y014197D01*
X008003Y014427D01*
X007946Y014484D01*
X007774Y014484D01*
X007774Y014140D01*
X008136Y014197D02*
X008193Y014140D01*
X008308Y014140D01*
X008365Y014197D01*
X008365Y014312D01*
X008308Y014369D01*
X008251Y014369D01*
X008136Y014312D01*
X008136Y014484D01*
X008365Y014484D01*
X008653Y014720D02*
X008653Y015064D01*
X008882Y015064D01*
X009016Y014949D02*
X009130Y015064D01*
X009130Y014720D01*
X009016Y014720D02*
X009245Y014720D01*
X009324Y014484D02*
X009152Y014484D01*
X009152Y014140D01*
X009324Y014140D01*
X009381Y014197D01*
X009381Y014427D01*
X009324Y014484D01*
X009514Y014312D02*
X009743Y014312D01*
X009686Y014140D02*
X009686Y014484D01*
X009514Y014312D01*
X008768Y014892D02*
X008653Y014892D01*
X008722Y015567D02*
X008722Y015911D01*
X008894Y015911D01*
X008951Y015854D01*
X008951Y015739D01*
X008894Y015682D01*
X008722Y015682D01*
X009084Y015796D02*
X009199Y015911D01*
X009199Y015567D01*
X009084Y015567D02*
X009314Y015567D01*
X008997Y012634D02*
X008882Y012634D01*
X008825Y012577D01*
X008692Y012577D02*
X008692Y012347D01*
X008635Y012290D01*
X008463Y012290D01*
X008463Y012634D01*
X008635Y012634D01*
X008692Y012577D01*
X008825Y012290D02*
X009054Y012519D01*
X009054Y012577D01*
X008997Y012634D01*
X009054Y012290D02*
X008825Y012290D01*
X009102Y010886D02*
X009274Y010886D01*
X009331Y010829D01*
X009331Y010714D01*
X009274Y010657D01*
X009102Y010657D01*
X009216Y010657D02*
X009331Y010542D01*
X009464Y010599D02*
X009521Y010542D01*
X009636Y010542D01*
X009693Y010599D01*
X009693Y010714D01*
X009636Y010771D01*
X009579Y010771D01*
X009464Y010714D01*
X009464Y010886D01*
X009693Y010886D01*
X009102Y010886D02*
X009102Y010542D01*
X008365Y010714D02*
X008136Y010714D01*
X008308Y010886D01*
X008308Y010542D01*
X008003Y010542D02*
X007888Y010657D01*
X007946Y010657D02*
X007774Y010657D01*
X007774Y010542D02*
X007774Y010886D01*
X007946Y010886D01*
X008003Y010829D01*
X008003Y010714D01*
X007946Y010657D01*
X008463Y009236D02*
X008635Y009236D01*
X008692Y009179D01*
X008692Y009064D01*
X008635Y009007D01*
X008463Y009007D01*
X008577Y009007D02*
X008692Y008892D01*
X008825Y008949D02*
X008882Y008892D01*
X008997Y008892D01*
X009054Y008949D01*
X009054Y009007D01*
X008997Y009064D01*
X008940Y009064D01*
X008997Y009064D02*
X009054Y009121D01*
X009054Y009179D01*
X008997Y009236D01*
X008882Y009236D01*
X008825Y009179D01*
X008463Y009236D02*
X008463Y008892D01*
X006495Y012688D02*
X006266Y012688D01*
X006438Y012860D01*
X006438Y012516D01*
X006133Y012573D02*
X006133Y012860D01*
X006133Y012573D02*
X006076Y012516D01*
X005961Y012516D01*
X005904Y012573D01*
X005904Y012860D01*
X005789Y014150D02*
X005674Y014150D01*
X005617Y014207D01*
X005484Y014207D02*
X005484Y014437D01*
X005427Y014494D01*
X005255Y014494D01*
X005255Y014150D01*
X005427Y014150D01*
X005484Y014207D01*
X005617Y014437D02*
X005674Y014494D01*
X005789Y014494D01*
X005846Y014437D01*
X005846Y014379D01*
X005789Y014322D01*
X005846Y014265D01*
X005846Y014207D01*
X005789Y014150D01*
X005789Y014322D02*
X005732Y014322D01*
X006150Y014681D02*
X006150Y015025D01*
X006379Y015025D01*
X006512Y014968D02*
X006569Y015025D01*
X006684Y015025D01*
X006741Y014968D01*
X006741Y014911D01*
X006512Y014681D01*
X006741Y014681D01*
X006766Y014484D02*
X006709Y014427D01*
X006766Y014484D02*
X006881Y014484D01*
X006938Y014427D01*
X006938Y014369D01*
X006709Y014140D01*
X006938Y014140D01*
X006576Y014197D02*
X006518Y014140D01*
X006404Y014140D01*
X006346Y014197D01*
X006346Y014427D01*
X006404Y014484D01*
X006518Y014484D01*
X006576Y014427D01*
X006264Y014853D02*
X006150Y014853D01*
X004330Y015280D02*
X004273Y015223D01*
X004158Y015223D01*
X004101Y015280D01*
X003968Y015280D02*
X003910Y015223D01*
X003796Y015223D01*
X003738Y015280D01*
X003738Y015509D01*
X003796Y015567D01*
X003910Y015567D01*
X003968Y015509D01*
X004101Y015509D02*
X004158Y015567D01*
X004273Y015567D01*
X004330Y015509D01*
X004330Y015452D01*
X004273Y015395D01*
X004330Y015337D01*
X004330Y015280D01*
X004273Y015395D02*
X004215Y015395D01*
X003955Y014454D02*
X003955Y014110D01*
X003841Y014110D02*
X004070Y014110D01*
X003841Y014339D02*
X003955Y014454D01*
X003708Y014110D02*
X003478Y014110D01*
X003478Y014454D01*
X003796Y013401D02*
X003738Y013344D01*
X003738Y013115D01*
X003796Y013057D01*
X003910Y013057D01*
X003968Y013115D01*
X004101Y013229D02*
X004330Y013229D01*
X004273Y013057D02*
X004273Y013401D01*
X004101Y013229D01*
X003968Y013344D02*
X003910Y013401D01*
X003796Y013401D01*
X002688Y013390D02*
X002454Y013623D01*
X002396Y013623D01*
X002337Y013565D01*
X002337Y013448D01*
X002396Y013390D01*
X002688Y013390D02*
X002688Y013623D01*
X002513Y013758D02*
X002513Y013992D01*
X002454Y014126D02*
X002513Y014185D01*
X002513Y014360D01*
X002629Y014360D02*
X002396Y014360D01*
X002337Y014301D01*
X002337Y014185D01*
X002396Y014126D01*
X002454Y014126D01*
X002629Y014126D02*
X002688Y014185D01*
X002688Y014301D01*
X002629Y014360D01*
X002513Y014495D02*
X002513Y014728D01*
X002454Y014863D02*
X002337Y014980D01*
X002688Y014980D01*
X002688Y015096D02*
X002688Y014863D01*
X002688Y015231D02*
X002688Y015465D01*
X002688Y015348D02*
X002337Y015348D01*
X002454Y015231D01*
X003797Y010325D02*
X003738Y010267D01*
X003738Y010033D01*
X003797Y009975D01*
X003913Y009975D01*
X003972Y010033D01*
X004107Y010033D02*
X004107Y009975D01*
X004107Y010033D02*
X004340Y010267D01*
X004340Y010325D01*
X004107Y010325D01*
X003972Y010267D02*
X003913Y010325D01*
X003797Y010325D01*
D12*
X010633Y012455D02*
X010693Y012395D01*
X010813Y012395D01*
X010723Y012395D02*
X010723Y012515D01*
X010693Y012515D02*
X010813Y012515D01*
X010783Y012579D02*
X010723Y012579D01*
X010693Y012609D01*
X010693Y012699D01*
X010633Y012699D02*
X010813Y012699D01*
X010813Y012609D01*
X010783Y012579D01*
X010693Y012515D02*
X010633Y012455D01*
X010783Y012763D02*
X010753Y012793D01*
X010753Y012883D01*
X010723Y012883D02*
X010813Y012883D01*
X010813Y012793D01*
X010783Y012763D01*
X010693Y012793D02*
X010693Y012853D01*
X010723Y012883D01*
X010693Y012947D02*
X010693Y013037D01*
X010723Y013067D01*
X010783Y013067D01*
X010813Y013037D01*
X010813Y012947D01*
X010873Y012947D02*
X010693Y012947D01*
X010693Y013131D02*
X010693Y013191D01*
X010663Y013161D02*
X010783Y013161D01*
X010813Y013191D01*
X010783Y013254D02*
X010723Y013254D01*
X010693Y013284D01*
X010693Y013344D01*
X010723Y013374D01*
X010753Y013374D01*
X010753Y013254D01*
X010783Y013254D02*
X010813Y013284D01*
X010813Y013344D01*
X010783Y013438D02*
X010723Y013438D01*
X010693Y013468D01*
X010693Y013558D01*
X010633Y013558D02*
X010813Y013558D01*
X010813Y013468D01*
X010783Y013438D01*
X010933Y013591D02*
X010933Y013651D01*
X010963Y013681D01*
X010933Y013591D02*
X010963Y013561D01*
X011083Y013561D01*
X011113Y013591D01*
X011113Y013651D01*
X011083Y013681D01*
X011083Y013745D02*
X011053Y013775D01*
X011053Y013865D01*
X011023Y013865D02*
X011113Y013865D01*
X011113Y013775D01*
X011083Y013745D01*
X010993Y013775D02*
X010993Y013835D01*
X011023Y013865D01*
X010993Y013929D02*
X010993Y013959D01*
X011023Y013989D01*
X010993Y014019D01*
X011023Y014049D01*
X011113Y014049D01*
X011113Y013989D02*
X011023Y013989D01*
X010993Y013929D02*
X011113Y013929D01*
X011113Y014113D02*
X011113Y014203D01*
X011083Y014233D01*
X011023Y014233D01*
X010993Y014203D01*
X010993Y014113D01*
X011173Y014113D01*
X011113Y014482D02*
X010933Y014482D01*
X010933Y014572D01*
X010963Y014602D01*
X011083Y014602D01*
X011113Y014572D01*
X011113Y014482D01*
X011083Y014666D02*
X011023Y014666D01*
X010993Y014696D01*
X010993Y014756D01*
X011023Y014786D01*
X011053Y014786D01*
X011053Y014666D01*
X011083Y014666D02*
X011113Y014696D01*
X011113Y014756D01*
X011113Y014850D02*
X011113Y014940D01*
X011083Y014970D01*
X011053Y014940D01*
X011053Y014880D01*
X011023Y014850D01*
X010993Y014880D01*
X010993Y014970D01*
X010993Y015034D02*
X010993Y015064D01*
X011113Y015064D01*
X011113Y015034D02*
X011113Y015094D01*
X011083Y015157D02*
X011113Y015187D01*
X011113Y015277D01*
X011143Y015277D02*
X010993Y015277D01*
X010993Y015187D01*
X011023Y015157D01*
X011083Y015157D01*
X011173Y015217D02*
X011173Y015247D01*
X011143Y015277D01*
X011113Y015341D02*
X010993Y015341D01*
X010993Y015431D01*
X011023Y015461D01*
X011113Y015461D01*
X010933Y015064D02*
X010903Y015064D01*
X010813Y015003D02*
X010633Y015003D01*
X010633Y015093D01*
X010663Y015123D01*
X010723Y015123D01*
X010753Y015093D01*
X010753Y015003D01*
X010753Y014939D02*
X010783Y014939D01*
X010813Y014909D01*
X010813Y014849D01*
X010783Y014819D01*
X010723Y014849D02*
X010723Y014909D01*
X010753Y014939D01*
X010663Y014939D02*
X010633Y014909D01*
X010633Y014849D01*
X010663Y014819D01*
X010693Y014819D01*
X010723Y014849D01*
X010633Y014755D02*
X010813Y014755D01*
X010813Y014635D02*
X010633Y014635D01*
X010693Y014695D01*
X010633Y014755D01*
X010723Y014387D02*
X010813Y014387D01*
X010813Y014327D02*
X010723Y014327D01*
X010693Y014357D01*
X010723Y014387D01*
X010723Y014327D02*
X010693Y014297D01*
X010693Y014267D01*
X010813Y014267D01*
X010783Y014203D02*
X010723Y014203D01*
X010693Y014173D01*
X010693Y014113D01*
X010723Y014083D01*
X010783Y014083D01*
X010813Y014113D01*
X010813Y014173D01*
X010783Y014203D01*
X010693Y014019D02*
X010693Y013989D01*
X010753Y013929D01*
X010813Y013929D02*
X010693Y013929D01*
X010723Y013866D02*
X010723Y013806D01*
X010663Y013836D02*
X010813Y013836D01*
X010663Y013836D02*
X010633Y013866D01*
X010993Y013313D02*
X010993Y013223D01*
X011023Y013193D01*
X011083Y013193D01*
X011113Y013223D01*
X011113Y013313D01*
X011143Y013313D02*
X010993Y013313D01*
X011143Y013313D02*
X011173Y013283D01*
X011173Y013253D01*
X011113Y013129D02*
X011023Y013129D01*
X010993Y013099D01*
X010993Y013009D01*
X011113Y013009D01*
X011113Y012946D02*
X011113Y012886D01*
X011113Y012916D02*
X010993Y012916D01*
X010993Y012886D01*
X010993Y012822D02*
X011143Y012822D01*
X011173Y012792D01*
X011173Y012762D01*
X011113Y012732D02*
X011113Y012822D01*
X011113Y012732D02*
X011083Y012702D01*
X010993Y012702D01*
X010933Y012609D02*
X011113Y012609D01*
X011113Y012579D02*
X011113Y012639D01*
X011023Y012455D02*
X011023Y012395D01*
X011113Y012395D02*
X010933Y012395D01*
X010933Y012515D01*
X010933Y012579D02*
X010933Y012609D01*
X010933Y012916D02*
X010903Y012916D01*
X010813Y015372D02*
X010633Y015372D01*
X010633Y015462D01*
X010663Y015492D01*
X010693Y015492D01*
X010723Y015462D01*
X010723Y015372D01*
X010723Y015462D02*
X010753Y015492D01*
X010783Y015492D01*
X010813Y015462D01*
X010813Y015372D01*
X010783Y015556D02*
X010813Y015586D01*
X010813Y015646D01*
X010783Y015676D01*
X010753Y015676D01*
X010723Y015646D01*
X010723Y015586D01*
X010693Y015556D01*
X010663Y015556D01*
X010633Y015586D01*
X010633Y015646D01*
X010663Y015676D01*
X010633Y015740D02*
X010813Y015740D01*
X010813Y015860D01*
X010813Y016108D02*
X010633Y016108D01*
X010633Y016198D01*
X010663Y016228D01*
X010723Y016228D01*
X010753Y016198D01*
X010753Y016108D01*
X010753Y016292D02*
X010693Y016352D01*
X010693Y016382D01*
X010723Y016446D02*
X010693Y016476D01*
X010693Y016536D01*
X010723Y016566D01*
X010783Y016566D01*
X010813Y016536D01*
X010813Y016476D01*
X010783Y016446D01*
X010723Y016446D01*
X010693Y016292D02*
X010813Y016292D01*
X010783Y016630D02*
X010813Y016660D01*
X010813Y016750D01*
X010843Y016750D02*
X010693Y016750D01*
X010693Y016660D01*
X010723Y016630D01*
X010783Y016630D01*
X010873Y016690D02*
X010873Y016720D01*
X010843Y016750D01*
X010813Y016814D02*
X010813Y016844D01*
X010783Y016844D01*
X010783Y016814D01*
X010813Y016814D01*
D13*
X009757Y007282D02*
X005741Y007282D01*
X005741Y005235D01*
X009757Y005235D01*
X009757Y007282D01*
X005386Y008109D02*
X005386Y008739D01*
X005229Y008897D01*
X004796Y008897D01*
X004796Y007952D02*
X005229Y007952D01*
X005386Y008109D01*
X004009Y007952D02*
X003418Y007952D01*
X003418Y008897D01*
X004009Y008897D01*
X003596Y005947D02*
X003598Y005962D01*
X003604Y005975D01*
X003613Y005987D01*
X003624Y005996D01*
X003638Y006002D01*
X003653Y006004D01*
X003668Y006002D01*
X003681Y005996D01*
X003693Y005987D01*
X003702Y005976D01*
X003708Y005962D01*
X003710Y005947D01*
X003708Y005932D01*
X003702Y005919D01*
X003693Y005907D01*
X003682Y005898D01*
X003668Y005892D01*
X003653Y005890D01*
X003638Y005892D01*
X003625Y005898D01*
X003613Y005907D01*
X003604Y005918D01*
X003598Y005932D01*
X003596Y005947D01*
D14*
X006095Y005619D03*
D15*
X005402Y005759D02*
X003402Y005759D01*
X003402Y006759D01*
X005402Y006759D01*
X005402Y005759D01*
X005815Y003374D02*
X005815Y003154D01*
X005815Y003374D02*
X006135Y003374D01*
X005815Y002474D02*
X005815Y002254D01*
X006135Y002254D01*
X004167Y002254D02*
X003847Y002254D01*
X003847Y002474D01*
X003847Y003154D02*
X003847Y003374D01*
X004167Y003374D01*
X005316Y012117D02*
X005316Y013259D01*
X005654Y013259D01*
X005654Y012117D01*
X005316Y012117D01*
X005245Y016408D02*
X008001Y016408D01*
X008985Y017885D02*
X004260Y017885D01*
D16*
X004846Y013821D03*
X004855Y013377D03*
X007355Y012786D03*
X008044Y012786D03*
X008733Y012786D03*
X009422Y012786D03*
D17*
X003063Y016740D03*
X002513Y016500D03*
X002453Y016500D03*
X002543Y016120D03*
X002553Y016120D03*
D18*
X002523Y016120D03*
X002523Y016060D03*
X002533Y016060D03*
X002543Y016050D03*
X002553Y016050D03*
X002513Y016060D03*
X002503Y016060D03*
X002493Y016060D03*
X002423Y016080D03*
X002413Y016080D03*
X002413Y016170D03*
X002423Y016170D03*
X002433Y016170D03*
X002493Y016180D03*
X002523Y016190D03*
X002533Y016190D03*
X002533Y016310D03*
X002543Y016310D03*
X002553Y016310D03*
X002523Y016310D03*
X002513Y016310D03*
X002503Y016310D03*
X002493Y016310D03*
X002483Y016310D03*
X002473Y016310D03*
X002463Y016310D03*
X002453Y016310D03*
X002443Y016310D03*
X002433Y016310D03*
X002423Y016310D03*
X002413Y016310D03*
X002463Y016420D03*
X002473Y016420D03*
X002483Y016420D03*
X002493Y016420D03*
X002453Y016430D03*
X002453Y016610D03*
X002463Y016610D03*
X002443Y016610D03*
X002433Y016610D03*
X002423Y016610D03*
X002413Y016610D03*
X002503Y016610D03*
X002513Y016610D03*
X002523Y016610D03*
X002533Y016610D03*
X002543Y016610D03*
X002553Y016610D03*
X002553Y016700D03*
X002543Y016700D03*
X002533Y016700D03*
X002523Y016700D03*
X002513Y016700D03*
X002503Y016700D03*
X002463Y016700D03*
X002453Y016700D03*
X002443Y016700D03*
X002433Y016700D03*
X002423Y016700D03*
X002413Y016700D03*
X002413Y016810D03*
X002423Y016810D03*
X002433Y016810D03*
X002443Y016810D03*
X002453Y016810D03*
X002463Y016810D03*
X002473Y016810D03*
X002483Y016810D03*
X002493Y016810D03*
X002503Y016810D03*
X002513Y016810D03*
X002523Y016810D03*
X002533Y016810D03*
X002543Y016810D03*
X002553Y016810D03*
X002503Y016920D03*
X002493Y016920D03*
X002483Y016920D03*
X002473Y016920D03*
X002463Y016920D03*
X002453Y016930D03*
X002513Y016930D03*
X002513Y017020D03*
X002503Y017030D03*
X002543Y017120D03*
X002553Y017120D03*
X002533Y017130D03*
X002493Y017140D03*
X002473Y017150D03*
X002463Y017150D03*
X002463Y017200D03*
X002473Y017200D03*
X002493Y017210D03*
X002533Y017220D03*
X002543Y017230D03*
X002553Y017230D03*
X002553Y017320D03*
X002543Y017320D03*
X002533Y017320D03*
X002523Y017320D03*
X002513Y017320D03*
X002503Y017320D03*
X002493Y017320D03*
X002483Y017320D03*
X002473Y017320D03*
X002483Y017380D03*
X002483Y017430D03*
X002473Y017430D03*
X002463Y017430D03*
X002453Y017430D03*
X002443Y017430D03*
X002433Y017430D03*
X002423Y017430D03*
X002413Y017430D03*
X002543Y017430D03*
X002553Y017430D03*
X002663Y017420D03*
X002673Y017420D03*
X002683Y017420D03*
X002693Y017420D03*
X002703Y017420D03*
X002713Y017420D03*
X002723Y017420D03*
X002773Y017520D03*
X002783Y017520D03*
X002793Y017520D03*
X002803Y017520D03*
X002813Y017520D03*
X002823Y017520D03*
X002833Y017520D03*
X002843Y017520D03*
X002853Y017520D03*
X002863Y017520D03*
X002873Y017520D03*
X002883Y017520D03*
X002893Y017520D03*
X002903Y017520D03*
X002913Y017520D03*
X002923Y017520D03*
X002933Y017520D03*
X002943Y017520D03*
X002953Y017520D03*
X002963Y017520D03*
X002973Y017520D03*
X002983Y017520D03*
X002993Y017520D03*
X003003Y017520D03*
X002723Y017050D03*
X002713Y017050D03*
X002703Y017050D03*
X002693Y017050D03*
X002683Y017050D03*
X002673Y017050D03*
X002663Y017050D03*
X002663Y016980D03*
X002673Y016970D03*
X002693Y016960D03*
X002703Y016950D03*
X002723Y016940D03*
X002793Y016950D03*
X002803Y016950D03*
X002813Y016950D03*
X002823Y016950D03*
X002833Y016950D03*
X002843Y016950D03*
X002853Y016950D03*
X002863Y016950D03*
X002873Y016950D03*
X002883Y016950D03*
X002893Y016950D03*
X002903Y016950D03*
X002913Y016950D03*
X002923Y016950D03*
X002933Y016950D03*
X002943Y016950D03*
X002953Y016950D03*
X002963Y016950D03*
X002973Y016950D03*
X002983Y016950D03*
X002993Y016950D03*
X003003Y016950D03*
X002933Y016810D03*
X002983Y016780D03*
X002983Y016700D03*
X002933Y016670D03*
X002853Y016620D03*
X002803Y016590D03*
X002803Y016530D03*
X002813Y016530D03*
X002823Y016530D03*
X002833Y016530D03*
X002843Y016530D03*
X002853Y016530D03*
X002863Y016530D03*
X002873Y016530D03*
X002883Y016530D03*
X002893Y016530D03*
X002903Y016530D03*
X002913Y016530D03*
X002923Y016530D03*
X002933Y016530D03*
X002943Y016530D03*
X002953Y016530D03*
X002963Y016530D03*
X002973Y016530D03*
X002983Y016530D03*
X002993Y016530D03*
X003003Y016530D03*
X003053Y016740D03*
X002883Y016840D03*
X002853Y016860D03*
X002803Y016890D03*
X002723Y016540D03*
X002703Y016530D03*
X002693Y016520D03*
X002673Y016510D03*
X002663Y016500D03*
X002663Y016430D03*
X002673Y016430D03*
X002683Y016430D03*
X002693Y016430D03*
X002703Y016430D03*
X002713Y016430D03*
X002723Y016430D03*
X002793Y016530D03*
X002723Y016060D03*
X002713Y016060D03*
X002703Y016060D03*
X002693Y016060D03*
X002683Y016060D03*
X002673Y016060D03*
X002663Y016060D03*
X002773Y015960D03*
X002783Y015960D03*
X002793Y015960D03*
X002803Y015960D03*
X002813Y015960D03*
X002823Y015960D03*
X002833Y015960D03*
X002843Y015960D03*
X002853Y015960D03*
X002863Y015960D03*
X002873Y015960D03*
X002883Y015960D03*
X002893Y015960D03*
X002903Y015960D03*
X002913Y015960D03*
X002923Y015960D03*
X002933Y015960D03*
X002943Y015960D03*
X002953Y015960D03*
X002963Y015960D03*
X002973Y015960D03*
X002983Y015960D03*
X002993Y015960D03*
X003003Y015960D03*
X002613Y015790D03*
X002603Y015790D03*
X002593Y015790D03*
X002583Y015790D03*
X002573Y015790D03*
X002563Y015790D03*
X002553Y015790D03*
X002543Y015790D03*
X002533Y015790D03*
X002523Y015790D03*
X002513Y015790D03*
X002503Y015790D03*
X002493Y015790D03*
X002483Y015790D03*
X002473Y015790D03*
X002463Y015790D03*
X002453Y015790D03*
X002443Y015790D03*
X002433Y015790D03*
X002423Y015790D03*
X002413Y015790D03*
X002403Y015790D03*
X002393Y015790D03*
X002383Y015790D03*
X002373Y015790D03*
X002363Y015790D03*
X002353Y015790D03*
X002343Y015790D03*
X002333Y015790D03*
X002193Y015970D03*
X002183Y015970D03*
X002173Y015970D03*
X002163Y015970D03*
X002153Y015970D03*
X002143Y015970D03*
X002133Y015970D03*
X002123Y015970D03*
X002113Y015970D03*
X002103Y015970D03*
X002093Y015970D03*
X002083Y015970D03*
X002073Y015970D03*
X002063Y015970D03*
X002053Y015970D03*
X002043Y015970D03*
X002033Y015970D03*
X002023Y015970D03*
X002013Y015970D03*
X002003Y015970D03*
X001993Y015970D03*
X001983Y015970D03*
X001973Y015970D03*
X001963Y015970D03*
X001953Y015970D03*
X001963Y016520D03*
X001973Y016530D03*
X001983Y016530D03*
X001993Y016540D03*
X002013Y016550D03*
X002023Y016560D03*
X002033Y016560D03*
X002043Y016570D03*
X002063Y016580D03*
X002073Y016590D03*
X002083Y016590D03*
X002093Y016600D03*
X002113Y016610D03*
X002163Y016640D03*
X002193Y016660D03*
X002213Y016670D03*
X002233Y016680D03*
X002253Y016690D03*
X002263Y016700D03*
X002283Y016710D03*
X002283Y016770D03*
X002263Y016780D03*
X002253Y016790D03*
X002233Y016800D03*
X002223Y016810D03*
X002213Y016810D03*
X002203Y016820D03*
X002183Y016830D03*
X002173Y016840D03*
X002163Y016840D03*
X002153Y016850D03*
X002133Y016860D03*
X002123Y016870D03*
X002103Y016880D03*
X002083Y016890D03*
X002063Y016900D03*
X002043Y016910D03*
X002033Y016920D03*
X002013Y016930D03*
X002003Y016940D03*
X001993Y016940D03*
X001983Y016950D03*
X001973Y016950D03*
X001963Y016960D03*
X002243Y017420D03*
X002253Y017420D03*
X002263Y017420D03*
X002273Y017420D03*
X002283Y017420D03*
X002193Y017510D03*
X002183Y017510D03*
X002173Y017510D03*
X002163Y017510D03*
X002153Y017510D03*
X002143Y017510D03*
X002133Y017510D03*
X002123Y017510D03*
X002113Y017510D03*
X002103Y017510D03*
X002093Y017510D03*
X002083Y017510D03*
X002073Y017510D03*
X002063Y017510D03*
X002053Y017510D03*
X002043Y017510D03*
X002033Y017510D03*
X002023Y017510D03*
X002013Y017510D03*
X002003Y017510D03*
X001993Y017510D03*
X001983Y017510D03*
X001973Y017510D03*
X001963Y017510D03*
X001953Y017510D03*
X002333Y017690D03*
X002343Y017690D03*
X002353Y017690D03*
X002363Y017690D03*
X002373Y017690D03*
X002383Y017690D03*
X002393Y017690D03*
X002403Y017690D03*
X002413Y017690D03*
X002423Y017690D03*
X002433Y017690D03*
X002443Y017690D03*
X002453Y017690D03*
X002463Y017690D03*
X002473Y017690D03*
X002483Y017690D03*
X002493Y017690D03*
X002503Y017690D03*
X002513Y017690D03*
X002523Y017690D03*
X002533Y017690D03*
X002543Y017690D03*
X002553Y017690D03*
X002563Y017690D03*
X002573Y017690D03*
X002583Y017690D03*
X002593Y017690D03*
X002603Y017690D03*
X002613Y017690D03*
X002283Y016060D03*
X002273Y016060D03*
X002263Y016060D03*
X002253Y016060D03*
X002243Y016060D03*
D19*
X003013Y016245D03*
X003023Y016245D03*
X003033Y016245D03*
X003043Y016245D03*
X003043Y017235D03*
X003033Y017235D03*
X003023Y017235D03*
X003013Y017235D03*
D20*
X003033Y016740D03*
X003043Y016740D03*
X002553Y016980D03*
X002433Y017180D03*
X002433Y017330D03*
X002523Y017420D03*
X002503Y016120D03*
X002493Y016120D03*
X002463Y016080D03*
X002453Y016080D03*
X002443Y016080D03*
D21*
X002423Y016470D03*
X002543Y016470D03*
X002773Y016550D03*
X002773Y016930D03*
X003023Y016740D03*
X002503Y017410D03*
X002453Y017340D03*
D22*
X002463Y017345D03*
X002493Y017405D03*
X002543Y016975D03*
X002783Y016925D03*
X002783Y016555D03*
X002533Y016465D03*
X002433Y016465D03*
X003013Y016735D03*
D23*
X003003Y016740D03*
X002523Y016460D03*
X002443Y016460D03*
X002423Y016980D03*
D24*
X002443Y017015D03*
X002523Y017015D03*
X002523Y016935D03*
X002443Y016935D03*
X002273Y016775D03*
X002243Y016795D03*
X002193Y016825D03*
X002143Y016855D03*
X002113Y016875D03*
X002093Y016885D03*
X002073Y016895D03*
X002053Y016905D03*
X002023Y016925D03*
X001953Y016965D03*
X002103Y016605D03*
X002123Y016615D03*
X002133Y016625D03*
X002143Y016625D03*
X002153Y016635D03*
X002173Y016645D03*
X002183Y016655D03*
X002203Y016665D03*
X002223Y016675D03*
X002243Y016685D03*
X002273Y016705D03*
X002413Y016475D03*
X002503Y016425D03*
X002513Y016435D03*
X002553Y016475D03*
X002683Y016515D03*
X002713Y016535D03*
X002793Y016585D03*
X002813Y016595D03*
X002823Y016605D03*
X002833Y016605D03*
X002843Y016615D03*
X002863Y016625D03*
X002873Y016635D03*
X002883Y016635D03*
X002893Y016645D03*
X002903Y016655D03*
X002913Y016655D03*
X002923Y016665D03*
X002943Y016675D03*
X002953Y016685D03*
X002963Y016685D03*
X002973Y016695D03*
X002993Y016705D03*
X002993Y016775D03*
X002973Y016785D03*
X002963Y016795D03*
X002953Y016795D03*
X002943Y016805D03*
X002923Y016815D03*
X002913Y016825D03*
X002903Y016825D03*
X002893Y016835D03*
X002873Y016845D03*
X002863Y016855D03*
X002843Y016865D03*
X002833Y016875D03*
X002823Y016875D03*
X002813Y016885D03*
X002793Y016895D03*
X002713Y016945D03*
X002683Y016965D03*
X002423Y017175D03*
X002413Y017175D03*
X002413Y017325D03*
X002423Y017325D03*
X002473Y017375D03*
X002533Y017425D03*
X002053Y016575D03*
X002003Y016545D03*
X001953Y016515D03*
X002443Y016165D03*
X002453Y016165D03*
X002503Y016185D03*
X002513Y016185D03*
X002543Y016195D03*
X002553Y016195D03*
X002513Y016125D03*
X002433Y016075D03*
D25*
X002733Y016010D03*
X002743Y016010D03*
X002753Y016010D03*
X002763Y016010D03*
X002753Y017470D03*
X002763Y017470D03*
X002743Y017470D03*
X002733Y017470D03*
D26*
X002763Y016980D03*
X002763Y016500D03*
D27*
X002753Y016495D03*
X002753Y016985D03*
D28*
X002743Y016990D03*
X002733Y016990D03*
X002733Y016490D03*
X002743Y016490D03*
D29*
X002653Y016740D03*
X002643Y016740D03*
X002633Y016740D03*
X002623Y016740D03*
X002323Y016740D03*
X002313Y016740D03*
X002303Y016740D03*
X002293Y016740D03*
D30*
X002453Y017015D03*
X002483Y017145D03*
X002483Y017205D03*
X002533Y016125D03*
D31*
X002533Y016975D03*
X002503Y017175D03*
D32*
X002513Y017175D03*
X002523Y017175D03*
X002493Y016655D03*
X002483Y016655D03*
X002473Y016655D03*
X002233Y016015D03*
X002223Y016015D03*
X002213Y016015D03*
X002203Y016015D03*
X002203Y017465D03*
X002213Y017465D03*
X002223Y017465D03*
X002233Y017465D03*
D33*
X002443Y017335D03*
X002513Y017415D03*
X002453Y017175D03*
X002443Y017175D03*
X002473Y017015D03*
X002483Y017015D03*
X002493Y017015D03*
X002413Y016975D03*
X002463Y016165D03*
X002473Y016165D03*
X002473Y016085D03*
D34*
X002483Y016125D03*
D35*
X002433Y016980D03*
D36*
X001943Y017240D03*
X001943Y016240D03*
D37*
X001933Y016235D03*
X001923Y016235D03*
X001923Y017245D03*
X001933Y017245D03*
D38*
X001913Y017250D03*
X001913Y016230D03*
D39*
X002003Y013105D02*
X002293Y013105D01*
X002293Y013015D01*
X002783Y013015D01*
X002973Y012825D01*
X002973Y012325D01*
X002783Y012135D01*
X002293Y012135D01*
X002293Y012035D01*
X002003Y012035D01*
X002003Y012525D01*
X002293Y012525D01*
X002293Y012425D01*
X002683Y012425D01*
X002683Y012715D01*
X002293Y012715D01*
X002293Y012625D01*
X002003Y012625D01*
X002003Y013105D01*
X002003Y013102D02*
X002293Y013102D01*
X002293Y013094D02*
X002003Y013094D01*
X002003Y013085D02*
X002293Y013085D01*
X002293Y013076D02*
X002003Y013076D01*
X002003Y013068D02*
X002293Y013068D01*
X002293Y013059D02*
X002003Y013059D01*
X002003Y013051D02*
X002293Y013051D01*
X002293Y013042D02*
X002003Y013042D01*
X002003Y013034D02*
X002293Y013034D01*
X002293Y013025D02*
X002003Y013025D01*
X002003Y013017D02*
X002293Y013017D01*
X002293Y012709D02*
X002003Y012709D01*
X002003Y012701D02*
X002293Y012701D01*
X002293Y012692D02*
X002003Y012692D01*
X002003Y012683D02*
X002293Y012683D01*
X002293Y012675D02*
X002003Y012675D01*
X002003Y012666D02*
X002293Y012666D01*
X002293Y012658D02*
X002003Y012658D01*
X002003Y012649D02*
X002293Y012649D01*
X002293Y012641D02*
X002003Y012641D01*
X002003Y012632D02*
X002293Y012632D01*
X002293Y012521D02*
X002003Y012521D01*
X002003Y012513D02*
X002293Y012513D01*
X002293Y012504D02*
X002003Y012504D01*
X002003Y012496D02*
X002293Y012496D01*
X002293Y012487D02*
X002003Y012487D01*
X002003Y012478D02*
X002293Y012478D01*
X002293Y012470D02*
X002003Y012470D01*
X002003Y012461D02*
X002293Y012461D01*
X002293Y012453D02*
X002003Y012453D01*
X002003Y012444D02*
X002293Y012444D01*
X002293Y012436D02*
X002003Y012436D01*
X002003Y012427D02*
X002293Y012427D01*
X002293Y012128D02*
X002003Y012128D01*
X002003Y012120D02*
X002293Y012120D01*
X002293Y012111D02*
X002003Y012111D01*
X002003Y012103D02*
X002293Y012103D01*
X002293Y012094D02*
X002003Y012094D01*
X002003Y012085D02*
X002293Y012085D01*
X002293Y012077D02*
X002003Y012077D01*
X002003Y012068D02*
X002293Y012068D01*
X002293Y012060D02*
X002003Y012060D01*
X002003Y012051D02*
X002293Y012051D01*
X002293Y012043D02*
X002003Y012043D01*
X002003Y012137D02*
X002785Y012137D01*
X002793Y012145D02*
X002003Y012145D01*
X002003Y012154D02*
X002802Y012154D01*
X002810Y012162D02*
X002003Y012162D01*
X002003Y012171D02*
X002819Y012171D01*
X002827Y012179D02*
X002003Y012179D01*
X002003Y012188D02*
X002836Y012188D01*
X002844Y012196D02*
X002003Y012196D01*
X002003Y012205D02*
X002853Y012205D01*
X002862Y012214D02*
X002003Y012214D01*
X002003Y012222D02*
X002870Y012222D01*
X002879Y012231D02*
X002003Y012231D01*
X002003Y012239D02*
X002887Y012239D01*
X002896Y012248D02*
X002003Y012248D01*
X002003Y012256D02*
X002904Y012256D01*
X002913Y012265D02*
X002003Y012265D01*
X002003Y012273D02*
X002921Y012273D01*
X002930Y012282D02*
X002003Y012282D01*
X002003Y012290D02*
X002938Y012290D01*
X002947Y012299D02*
X002003Y012299D01*
X002003Y012308D02*
X002956Y012308D01*
X002964Y012316D02*
X002003Y012316D01*
X002003Y012325D02*
X002973Y012325D01*
X002973Y012333D02*
X002003Y012333D01*
X002003Y012342D02*
X002973Y012342D01*
X002973Y012350D02*
X002003Y012350D01*
X002003Y012359D02*
X002973Y012359D01*
X002973Y012367D02*
X002003Y012367D01*
X002003Y012376D02*
X002973Y012376D01*
X002973Y012384D02*
X002003Y012384D01*
X002003Y012393D02*
X002973Y012393D01*
X002973Y012402D02*
X002003Y012402D01*
X002003Y012410D02*
X002973Y012410D01*
X002973Y012419D02*
X002003Y012419D01*
X002003Y012718D02*
X002973Y012718D01*
X002973Y012726D02*
X002003Y012726D01*
X002003Y012735D02*
X002973Y012735D01*
X002973Y012743D02*
X002003Y012743D01*
X002003Y012752D02*
X002973Y012752D01*
X002973Y012760D02*
X002003Y012760D01*
X002003Y012769D02*
X002973Y012769D01*
X002973Y012777D02*
X002003Y012777D01*
X002003Y012786D02*
X002973Y012786D01*
X002973Y012795D02*
X002003Y012795D01*
X002003Y012803D02*
X002973Y012803D01*
X002973Y012812D02*
X002003Y012812D01*
X002003Y012820D02*
X002973Y012820D01*
X002969Y012829D02*
X002003Y012829D01*
X002003Y012837D02*
X002960Y012837D01*
X002952Y012846D02*
X002003Y012846D01*
X002003Y012854D02*
X002943Y012854D01*
X002935Y012863D02*
X002003Y012863D01*
X002003Y012871D02*
X002926Y012871D01*
X002917Y012880D02*
X002003Y012880D01*
X002003Y012889D02*
X002909Y012889D01*
X002900Y012897D02*
X002003Y012897D01*
X002003Y012906D02*
X002892Y012906D01*
X002883Y012914D02*
X002003Y012914D01*
X002003Y012923D02*
X002875Y012923D01*
X002866Y012931D02*
X002003Y012931D01*
X002003Y012940D02*
X002858Y012940D01*
X002849Y012948D02*
X002003Y012948D01*
X002003Y012957D02*
X002841Y012957D01*
X002832Y012965D02*
X002003Y012965D01*
X002003Y012974D02*
X002823Y012974D01*
X002815Y012982D02*
X002003Y012982D01*
X002003Y012991D02*
X002806Y012991D01*
X002798Y013000D02*
X002003Y013000D01*
X002003Y013008D02*
X002789Y013008D01*
X002683Y012709D02*
X002973Y012709D01*
X002973Y012701D02*
X002683Y012701D01*
X002683Y012692D02*
X002973Y012692D01*
X002973Y012683D02*
X002683Y012683D01*
X002683Y012675D02*
X002973Y012675D01*
X002973Y012666D02*
X002683Y012666D01*
X002683Y012658D02*
X002973Y012658D01*
X002973Y012649D02*
X002683Y012649D01*
X002683Y012641D02*
X002973Y012641D01*
X002973Y012632D02*
X002683Y012632D01*
X002683Y012624D02*
X002973Y012624D01*
X002973Y012615D02*
X002683Y012615D01*
X002683Y012607D02*
X002973Y012607D01*
X002973Y012598D02*
X002683Y012598D01*
X002683Y012589D02*
X002973Y012589D01*
X002973Y012581D02*
X002683Y012581D01*
X002683Y012572D02*
X002973Y012572D01*
X002973Y012564D02*
X002683Y012564D01*
X002683Y012555D02*
X002973Y012555D01*
X002973Y012547D02*
X002683Y012547D01*
X002683Y012538D02*
X002973Y012538D01*
X002973Y012530D02*
X002683Y012530D01*
X002683Y012521D02*
X002973Y012521D01*
X002973Y012513D02*
X002683Y012513D01*
X002683Y012504D02*
X002973Y012504D01*
X002973Y012496D02*
X002683Y012496D01*
X002683Y012487D02*
X002973Y012487D01*
X002973Y012478D02*
X002683Y012478D01*
X002683Y012470D02*
X002973Y012470D01*
X002973Y012461D02*
X002683Y012461D01*
X002683Y012453D02*
X002973Y012453D01*
X002973Y012444D02*
X002683Y012444D01*
X002683Y012436D02*
X002973Y012436D01*
X002973Y012427D02*
X002683Y012427D01*
M02*
