G75*
G70*
%OFA0B0*%
%FSLAX24Y24*%
%IPPOS*%
%LPD*%
%AMOC8*
5,1,8,0,0,1.08239X$1,22.5*
%
%ADD10C,0.0040*%
%ADD11C,0.0080*%
%ADD12C,0.0060*%
%ADD13C,0.0010*%
%ADD14R,0.0010X0.0610*%
%ADD15R,0.0010X0.0020*%
%ADD16R,0.0010X0.0040*%
%ADD17R,0.0010X0.0060*%
%ADD18R,0.0010X0.0080*%
%ADD19R,0.0010X0.0090*%
%ADD20R,0.0010X0.0100*%
%ADD21R,0.0010X0.0120*%
%ADD22R,0.0010X0.0140*%
%ADD23R,0.0010X0.0160*%
%ADD24R,0.0010X0.0180*%
%ADD25R,0.0010X0.0200*%
%ADD26R,0.0010X0.0220*%
%ADD27R,0.0010X0.0390*%
%ADD28R,0.0010X0.0240*%
%ADD29R,0.0010X0.0250*%
%ADD30R,0.0010X0.0260*%
%ADD31R,0.0010X0.0280*%
%ADD32R,0.0010X0.0300*%
%ADD33R,0.0010X0.0320*%
%ADD34R,0.0010X0.0340*%
%ADD35R,0.0010X0.0360*%
%ADD36R,0.0010X0.0380*%
%ADD37R,0.0010X0.0400*%
%ADD38R,0.0010X0.0420*%
%ADD39R,0.0010X0.0440*%
%ADD40R,0.0010X0.0460*%
%ADD41R,0.0010X0.0480*%
%ADD42R,0.0010X0.0500*%
%ADD43R,0.0010X0.0520*%
%ADD44R,0.0010X0.0540*%
%ADD45R,0.0010X0.0560*%
%ADD46R,0.0010X0.0580*%
%ADD47R,0.0010X0.1380*%
%ADD48R,0.0010X0.0680*%
%ADD49R,0.0010X0.0670*%
%ADD50R,0.0010X0.0660*%
%ADD51R,0.0010X0.0750*%
%ADD52R,0.0010X0.0740*%
%ADD53R,0.0010X0.0730*%
%ADD54R,0.0010X0.0720*%
%ADD55R,0.0010X0.0710*%
%ADD56R,0.0010X0.0700*%
%ADD57R,0.0010X0.0690*%
%ADD58R,0.0010X0.0650*%
%ADD59R,0.0010X0.0640*%
%ADD60R,0.0010X0.0630*%
%ADD61R,0.0010X0.0620*%
%ADD62R,0.0010X0.0600*%
%ADD63R,0.0010X0.0590*%
%ADD64R,0.0010X0.0570*%
D10*
X001916Y002415D02*
X002003Y002415D01*
X002046Y002458D01*
X002046Y002545D01*
X001959Y002545D01*
X001873Y002632D02*
X001916Y002675D01*
X002003Y002675D01*
X002046Y002632D01*
X002149Y002675D02*
X002149Y002415D01*
X002322Y002415D02*
X002149Y002675D01*
X002322Y002675D02*
X002322Y002415D01*
X002425Y002415D02*
X002555Y002415D01*
X002599Y002458D01*
X002599Y002632D01*
X002555Y002675D01*
X002425Y002675D01*
X002425Y002415D01*
X001916Y002415D02*
X001873Y002458D01*
X001873Y002632D01*
X003511Y003215D02*
X003511Y003475D01*
X003641Y003475D01*
X003684Y003432D01*
X003684Y003345D01*
X003641Y003301D01*
X003511Y003301D01*
X003598Y003301D02*
X003684Y003215D01*
X003598Y004002D02*
X003684Y004089D01*
X003684Y004262D01*
X003787Y004262D02*
X003787Y004002D01*
X003787Y004132D02*
X003830Y004176D01*
X003917Y004176D01*
X003961Y004132D01*
X003961Y004002D01*
X004063Y004045D02*
X004107Y004089D01*
X004237Y004089D01*
X004237Y004132D02*
X004237Y004002D01*
X004107Y004002D01*
X004063Y004045D01*
X004107Y004176D02*
X004193Y004176D01*
X004237Y004132D01*
X003684Y004790D02*
X003511Y004790D01*
X003511Y005050D01*
X003511Y005577D02*
X003511Y005837D01*
X003598Y005750D01*
X003684Y005837D01*
X003684Y005577D01*
X003787Y005577D02*
X003874Y005577D01*
X003830Y005577D02*
X003830Y005837D01*
X003787Y005837D02*
X003874Y005837D01*
X003971Y005794D02*
X003971Y005620D01*
X004015Y005577D01*
X004101Y005577D01*
X004145Y005620D01*
X004145Y005794D02*
X004101Y005837D01*
X004015Y005837D01*
X003971Y005794D01*
X003969Y006364D02*
X003925Y006408D01*
X003969Y006364D02*
X004055Y006364D01*
X004099Y006408D01*
X004099Y006451D01*
X004055Y006494D01*
X004012Y006494D01*
X004055Y006494D02*
X004099Y006538D01*
X004099Y006581D01*
X004055Y006625D01*
X003969Y006625D01*
X003925Y006581D01*
X003830Y006408D02*
X003830Y006364D01*
X003787Y006364D01*
X003787Y006408D01*
X003830Y006408D01*
X003684Y006408D02*
X003684Y006494D01*
X003641Y006538D01*
X003598Y006538D01*
X003511Y006494D01*
X003511Y006625D01*
X003684Y006625D01*
X003684Y006408D02*
X003641Y006364D01*
X003554Y006364D01*
X003511Y006408D01*
X003554Y007152D02*
X003511Y007195D01*
X003554Y007152D02*
X003641Y007152D01*
X003684Y007195D01*
X003684Y007282D01*
X003641Y007325D01*
X003598Y007325D01*
X003511Y007282D01*
X003511Y007412D01*
X003684Y007412D01*
X003787Y007195D02*
X003830Y007195D01*
X003830Y007152D01*
X003787Y007152D01*
X003787Y007195D01*
X003925Y007152D02*
X004099Y007325D01*
X004099Y007369D01*
X004055Y007412D01*
X003969Y007412D01*
X003925Y007369D01*
X003925Y007152D02*
X004099Y007152D01*
X004099Y007939D02*
X003925Y007939D01*
X004012Y007939D02*
X004012Y008199D01*
X003925Y008113D01*
X003830Y007982D02*
X003830Y007939D01*
X003787Y007939D01*
X003787Y007982D01*
X003830Y007982D01*
X003684Y007982D02*
X003641Y007939D01*
X003554Y007939D01*
X003511Y007982D01*
X003511Y008069D02*
X003598Y008113D01*
X003641Y008113D01*
X003684Y008069D01*
X003684Y007982D01*
X003684Y008199D02*
X003511Y008199D01*
X003511Y008069D01*
X003554Y008727D02*
X003511Y008770D01*
X003554Y008727D02*
X003641Y008727D01*
X003684Y008770D01*
X003684Y008857D01*
X003641Y008900D01*
X003598Y008900D01*
X003511Y008857D01*
X003511Y008987D01*
X003684Y008987D01*
X003787Y008770D02*
X003830Y008770D01*
X003830Y008727D01*
X003787Y008727D01*
X003787Y008770D01*
X003925Y008770D02*
X003925Y008943D01*
X003969Y008987D01*
X004055Y008987D01*
X004099Y008943D01*
X003925Y008770D01*
X003969Y008727D01*
X004055Y008727D01*
X004099Y008770D01*
X004099Y008943D01*
X004055Y009514D02*
X003969Y009514D01*
X003925Y009557D01*
X003925Y009644D01*
X004055Y009644D01*
X004099Y009601D01*
X004099Y009557D01*
X004055Y009514D01*
X003925Y009644D02*
X004012Y009731D01*
X004099Y009774D01*
X003830Y009557D02*
X003830Y009514D01*
X003787Y009514D01*
X003787Y009557D01*
X003830Y009557D01*
X003684Y009644D02*
X003511Y009644D01*
X003641Y009774D01*
X003641Y009514D01*
X003641Y010301D02*
X003641Y010562D01*
X003511Y010431D01*
X003684Y010431D01*
X003787Y010345D02*
X003787Y010301D01*
X003830Y010301D01*
X003830Y010345D01*
X003787Y010345D01*
X003925Y010345D02*
X003969Y010301D01*
X004055Y010301D01*
X004099Y010345D01*
X004099Y010431D01*
X004055Y010475D01*
X004012Y010475D01*
X003925Y010431D01*
X003925Y010562D01*
X004099Y010562D01*
X004514Y012778D02*
X004471Y012821D01*
X004471Y012908D01*
X004514Y012951D01*
X004601Y012908D02*
X004644Y012951D01*
X004688Y012951D01*
X004731Y012908D01*
X004731Y012821D01*
X004688Y012778D01*
X004601Y012821D02*
X004601Y012908D01*
X004601Y012821D02*
X004557Y012778D01*
X004514Y012778D01*
X004514Y013054D02*
X004471Y013098D01*
X004471Y013184D01*
X004514Y013228D01*
X004471Y013330D02*
X004731Y013330D01*
X004731Y013504D01*
X004688Y013228D02*
X004731Y013184D01*
X004731Y013098D01*
X004688Y013054D01*
X004514Y013054D01*
X003943Y013054D02*
X003683Y013228D01*
X003727Y013330D02*
X003683Y013374D01*
X003683Y013461D01*
X003727Y013504D01*
X003900Y013330D01*
X003943Y013374D01*
X003943Y013461D01*
X003900Y013504D01*
X003727Y013504D01*
X003727Y013330D02*
X003900Y013330D01*
X003943Y013228D02*
X003683Y013054D01*
X003683Y012951D02*
X003683Y012778D01*
X003683Y012865D02*
X003943Y012865D01*
X003156Y012951D02*
X003069Y012865D01*
X003069Y012908D02*
X003069Y012778D01*
X003156Y012778D02*
X002896Y012778D01*
X002896Y012908D01*
X002939Y012951D01*
X003026Y012951D01*
X003069Y012908D01*
X003156Y013054D02*
X002896Y013228D01*
X002939Y013330D02*
X002896Y013374D01*
X002896Y013461D01*
X002939Y013504D01*
X003113Y013330D01*
X003156Y013374D01*
X003156Y013461D01*
X003113Y013504D01*
X002939Y013504D01*
X002939Y013330D02*
X003113Y013330D01*
X003156Y013228D02*
X002896Y013054D01*
X005258Y013054D02*
X005258Y013141D01*
X005258Y013098D02*
X005518Y013098D01*
X005518Y013141D02*
X005518Y013054D01*
X005518Y012951D02*
X005258Y012951D01*
X005345Y012865D01*
X005258Y012778D01*
X005518Y012778D01*
X005475Y013238D02*
X005301Y013238D01*
X005258Y013282D01*
X005258Y013368D01*
X005301Y013412D01*
X005475Y013238D01*
X005518Y013282D01*
X005518Y013368D01*
X005475Y013412D01*
X005301Y013412D01*
X006045Y013374D02*
X006045Y013461D01*
X006089Y013504D01*
X006262Y013330D01*
X006306Y013374D01*
X006306Y013461D01*
X006262Y013504D01*
X006089Y013504D01*
X006045Y013374D02*
X006089Y013330D01*
X006262Y013330D01*
X006262Y013228D02*
X006089Y013228D01*
X006045Y013184D01*
X006045Y013098D01*
X006089Y013054D01*
X006262Y013054D01*
X006306Y013098D01*
X006306Y013184D01*
X006262Y013228D01*
X006306Y012951D02*
X006045Y012951D01*
X006132Y012865D01*
X006045Y012778D01*
X006306Y012778D01*
X006833Y012821D02*
X006876Y012778D01*
X006920Y012778D01*
X006963Y012821D01*
X006963Y012908D01*
X007006Y012951D01*
X007050Y012951D01*
X007093Y012908D01*
X007093Y012821D01*
X007050Y012778D01*
X007093Y013141D02*
X006833Y013141D01*
X006833Y013054D02*
X006833Y013228D01*
X006833Y013330D02*
X007093Y013330D01*
X007093Y013504D01*
X006963Y013417D02*
X006963Y013330D01*
X006833Y013330D02*
X006833Y013504D01*
X006876Y012951D02*
X006833Y012908D01*
X006833Y012821D01*
X007620Y012821D02*
X007664Y012778D01*
X007620Y012821D02*
X007620Y012908D01*
X007664Y012951D01*
X007707Y012951D01*
X007880Y012778D01*
X007880Y012951D01*
X007880Y013054D02*
X007837Y013054D01*
X007837Y013098D01*
X007880Y013098D01*
X007880Y013054D01*
X007837Y013192D02*
X007880Y013236D01*
X007880Y013322D01*
X007837Y013366D01*
X007794Y013366D01*
X007750Y013322D01*
X007750Y013192D01*
X007837Y013192D01*
X007750Y013192D02*
X007664Y013279D01*
X007620Y013366D01*
X008408Y013322D02*
X008451Y013366D01*
X008625Y013192D01*
X008668Y013236D01*
X008668Y013322D01*
X008625Y013366D01*
X008451Y013366D01*
X008408Y013322D02*
X008408Y013236D01*
X008451Y013192D01*
X008625Y013192D01*
X008625Y013098D02*
X008668Y013098D01*
X008668Y013054D01*
X008625Y013054D01*
X008625Y013098D01*
X008668Y012951D02*
X008668Y012778D01*
X008494Y012951D01*
X008451Y012951D01*
X008408Y012908D01*
X008408Y012821D01*
X008451Y012778D01*
X009195Y012865D02*
X009455Y012865D01*
X009455Y012951D02*
X009455Y012778D01*
X009282Y012778D02*
X009195Y012865D01*
X009412Y013054D02*
X009412Y013098D01*
X009455Y013098D01*
X009455Y013054D01*
X009412Y013054D01*
X009412Y013192D02*
X009455Y013236D01*
X009455Y013322D01*
X009412Y013366D01*
X009369Y013366D01*
X009325Y013322D01*
X009325Y013279D01*
X009325Y013322D02*
X009282Y013366D01*
X009238Y013366D01*
X009195Y013322D01*
X009195Y013236D01*
X009238Y013192D01*
X009982Y013236D02*
X010026Y013192D01*
X009982Y013236D02*
X009982Y013322D01*
X010026Y013366D01*
X010069Y013366D01*
X010243Y013192D01*
X010243Y013366D01*
X010243Y013098D02*
X010243Y013054D01*
X010199Y013054D01*
X010199Y013098D01*
X010243Y013098D01*
X010243Y012951D02*
X010243Y012778D01*
X010243Y012865D02*
X009982Y012865D01*
X010069Y012778D01*
X010668Y013815D02*
X010624Y013859D01*
X010624Y013945D01*
X010668Y013989D01*
X010754Y013945D02*
X010798Y013989D01*
X010841Y013989D01*
X010885Y013945D01*
X010885Y013859D01*
X010841Y013815D01*
X010754Y013859D02*
X010754Y013945D01*
X010754Y013859D02*
X010711Y013815D01*
X010668Y013815D01*
X010754Y014091D02*
X010841Y014091D01*
X010885Y014135D01*
X010885Y014265D01*
X010885Y014368D02*
X010624Y014368D01*
X010711Y014411D02*
X010711Y014498D01*
X010754Y014541D01*
X010885Y014541D01*
X010885Y014644D02*
X010711Y014644D01*
X010711Y014687D01*
X010754Y014731D01*
X010711Y014774D01*
X010754Y014817D01*
X010885Y014817D01*
X010885Y014731D02*
X010754Y014731D01*
X010711Y014920D02*
X010711Y014964D01*
X010885Y014964D01*
X010885Y015007D02*
X010885Y014920D01*
X010841Y015104D02*
X010754Y015104D01*
X010711Y015148D01*
X010711Y015278D01*
X010624Y015278D02*
X010885Y015278D01*
X010885Y015148D01*
X010841Y015104D01*
X010624Y014964D02*
X010581Y014964D01*
X010711Y014411D02*
X010754Y014368D01*
X010711Y014265D02*
X010711Y014135D01*
X010754Y014091D01*
X011132Y013854D02*
X011393Y013854D01*
X011393Y013767D02*
X011393Y013941D01*
X011263Y014044D02*
X011263Y014217D01*
X011219Y014320D02*
X011132Y014406D01*
X011393Y014406D01*
X011393Y014320D02*
X011393Y014493D01*
X011263Y014596D02*
X011263Y014769D01*
X011219Y014872D02*
X011132Y014959D01*
X011393Y014959D01*
X011393Y014872D02*
X011393Y015046D01*
X011393Y015148D02*
X011393Y015322D01*
X011393Y015235D02*
X011132Y015235D01*
X011219Y015148D01*
X011132Y013854D02*
X011219Y013767D01*
X009662Y010562D02*
X009662Y010301D01*
X009575Y010301D02*
X009749Y010301D01*
X009575Y010475D02*
X009662Y010562D01*
X009472Y010562D02*
X009299Y010301D01*
X009196Y010301D02*
X009109Y010388D01*
X009153Y010388D02*
X009023Y010388D01*
X009023Y010301D02*
X009023Y010562D01*
X009153Y010562D01*
X009196Y010518D01*
X009196Y010431D01*
X009153Y010388D01*
X009299Y010562D02*
X009472Y010301D01*
X009472Y009774D02*
X009299Y009514D01*
X009109Y009514D02*
X009109Y009774D01*
X009023Y009774D02*
X009196Y009774D01*
X009299Y009774D02*
X009472Y009514D01*
X009575Y009514D02*
X009749Y009514D01*
X009662Y009514D02*
X009662Y009774D01*
X009575Y009687D01*
X009472Y008987D02*
X009299Y008987D01*
X009196Y008900D02*
X009196Y008727D01*
X009299Y008727D02*
X009299Y008770D01*
X009472Y008943D01*
X009472Y008987D01*
X009196Y008900D02*
X009109Y008987D01*
X009023Y008900D01*
X009023Y008727D01*
X009023Y008857D02*
X009196Y008857D01*
X009109Y008199D02*
X009023Y008113D01*
X009023Y007939D01*
X009023Y008069D02*
X009196Y008069D01*
X009196Y008113D02*
X009196Y007939D01*
X009299Y007982D02*
X009342Y007939D01*
X009429Y007939D01*
X009472Y007982D01*
X009472Y008026D01*
X009429Y008069D01*
X009299Y008069D01*
X009299Y007982D01*
X009299Y008069D02*
X009386Y008156D01*
X009472Y008199D01*
X009196Y008113D02*
X009109Y008199D01*
X009109Y007412D02*
X009023Y007325D01*
X009023Y007152D01*
X009023Y007282D02*
X009196Y007282D01*
X009196Y007325D02*
X009196Y007152D01*
X009299Y007195D02*
X009342Y007152D01*
X009429Y007152D01*
X009472Y007195D01*
X009472Y007282D01*
X009429Y007325D01*
X009386Y007325D01*
X009299Y007282D01*
X009299Y007412D01*
X009472Y007412D01*
X009196Y007325D02*
X009109Y007412D01*
X009109Y006625D02*
X009023Y006538D01*
X009023Y006364D01*
X009023Y006494D02*
X009196Y006494D01*
X009196Y006538D02*
X009196Y006364D01*
X009299Y006494D02*
X009472Y006494D01*
X009429Y006364D02*
X009429Y006625D01*
X009299Y006494D01*
X009196Y006538D02*
X009109Y006625D01*
X009109Y005837D02*
X009109Y005577D01*
X009299Y005620D02*
X009299Y005794D01*
X009342Y005837D01*
X009429Y005837D01*
X009472Y005794D01*
X009575Y005837D02*
X009575Y005577D01*
X009575Y005664D02*
X009749Y005837D01*
X009618Y005707D02*
X009749Y005577D01*
X009472Y005620D02*
X009429Y005577D01*
X009342Y005577D01*
X009299Y005620D01*
X009196Y005837D02*
X009023Y005837D01*
X009023Y005050D02*
X009153Y005050D01*
X009196Y005006D01*
X009196Y004920D01*
X009153Y004876D01*
X009023Y004876D01*
X009109Y004876D02*
X009196Y004790D01*
X009299Y004833D02*
X009342Y004790D01*
X009429Y004790D01*
X009472Y004833D01*
X009472Y004876D01*
X009429Y004920D01*
X009342Y004920D01*
X009299Y004963D01*
X009299Y005006D01*
X009342Y005050D01*
X009429Y005050D01*
X009472Y005006D01*
X009575Y005050D02*
X009749Y005050D01*
X009662Y005050D02*
X009662Y004790D01*
X009705Y004262D02*
X009575Y004262D01*
X009575Y004002D01*
X009705Y004002D01*
X009749Y004045D01*
X009749Y004219D01*
X009705Y004262D01*
X009472Y004262D02*
X009472Y004002D01*
X009299Y004262D01*
X009299Y004002D01*
X009196Y004045D02*
X009196Y004132D01*
X009109Y004132D01*
X009023Y004045D02*
X009066Y004002D01*
X009153Y004002D01*
X009196Y004045D01*
X009023Y004045D02*
X009023Y004219D01*
X009066Y004262D01*
X009153Y004262D01*
X009196Y004219D01*
X009023Y004790D02*
X009023Y005050D01*
X009023Y003475D02*
X009023Y003301D01*
X009109Y003215D01*
X009196Y003301D01*
X009196Y003475D01*
X009299Y003345D02*
X009299Y003258D01*
X009342Y003215D01*
X009472Y003215D01*
X009575Y003258D02*
X009618Y003215D01*
X009749Y003215D01*
X009749Y003388D02*
X009618Y003388D01*
X009575Y003345D01*
X009575Y003258D01*
X009472Y003388D02*
X009342Y003388D01*
X009299Y003345D01*
X003598Y004002D02*
X003511Y004089D01*
X003511Y004262D01*
D11*
X001673Y002885D02*
X001673Y002185D01*
X010623Y002185D01*
X010623Y002885D01*
X010623Y003685D01*
X004123Y003685D01*
X004123Y002885D01*
X010623Y002885D01*
X004123Y002885D02*
X001673Y002885D01*
D12*
X001837Y012599D02*
X002277Y012599D01*
X002277Y012892D02*
X001837Y012892D01*
X002057Y012892D02*
X002057Y012599D01*
X001983Y013059D02*
X001983Y013133D01*
X002277Y013133D01*
X002277Y013206D02*
X002277Y013059D01*
X002204Y013366D02*
X002277Y013440D01*
X002277Y013513D01*
X002204Y013586D01*
X001837Y013586D01*
X001837Y013513D02*
X001837Y013660D01*
X001983Y013900D02*
X001983Y014047D01*
X002057Y014120D01*
X002277Y014120D01*
X002277Y013900D01*
X002204Y013826D01*
X002130Y013900D01*
X002130Y014120D01*
X002057Y014287D02*
X002204Y014287D01*
X002277Y014360D01*
X002277Y014580D01*
X002277Y014747D02*
X001837Y014747D01*
X001983Y014580D02*
X001983Y014360D01*
X002057Y014287D01*
X002130Y014747D02*
X001983Y014967D01*
X002130Y014747D02*
X002277Y014967D01*
X002277Y015591D02*
X001837Y015591D01*
X001837Y015811D01*
X001910Y015885D01*
X002057Y015885D01*
X002130Y015811D01*
X002130Y015591D01*
X002130Y016052D02*
X001983Y016198D01*
X001983Y016272D01*
X002057Y016435D02*
X002204Y016435D01*
X002277Y016509D01*
X002277Y016655D01*
X002204Y016729D01*
X002057Y016729D01*
X001983Y016655D01*
X001983Y016509D01*
X002057Y016435D01*
X001983Y016052D02*
X002277Y016052D01*
X001983Y016896D02*
X001983Y017042D01*
X001910Y016969D02*
X002204Y016969D01*
X002277Y017042D01*
X002204Y017202D02*
X002277Y017276D01*
X002277Y017423D01*
X002204Y017496D01*
X002057Y017496D01*
X001983Y017423D01*
X001983Y017276D01*
X002057Y017202D01*
X002204Y017202D01*
X001837Y013133D02*
X001763Y013133D01*
D13*
X010575Y015873D02*
X010865Y015873D01*
X010865Y015973D01*
X011355Y015973D01*
X011545Y016163D01*
X011545Y016663D01*
X011355Y016853D01*
X010575Y016853D01*
X010575Y016861D02*
X010865Y016861D01*
X010865Y016853D02*
X011355Y016853D01*
X011363Y016844D02*
X010575Y016844D01*
X010575Y016836D02*
X011372Y016836D01*
X011380Y016827D02*
X010575Y016827D01*
X010575Y016818D02*
X011389Y016818D01*
X011398Y016810D02*
X010575Y016810D01*
X010575Y016801D02*
X011406Y016801D01*
X011415Y016793D02*
X010575Y016793D01*
X010575Y016784D02*
X011423Y016784D01*
X011432Y016776D02*
X010575Y016776D01*
X010575Y016767D02*
X011440Y016767D01*
X011449Y016759D02*
X010575Y016759D01*
X010575Y016750D02*
X011457Y016750D01*
X011466Y016742D02*
X010575Y016742D01*
X010575Y016733D02*
X011474Y016733D01*
X011483Y016724D02*
X010575Y016724D01*
X010575Y016716D02*
X011491Y016716D01*
X011500Y016707D02*
X010575Y016707D01*
X010575Y016699D02*
X011509Y016699D01*
X011517Y016690D02*
X010575Y016690D01*
X010575Y016682D02*
X011526Y016682D01*
X011534Y016673D02*
X010575Y016673D01*
X010575Y016665D02*
X011543Y016665D01*
X011545Y016656D02*
X010575Y016656D01*
X010575Y016648D02*
X011545Y016648D01*
X011545Y016639D02*
X010575Y016639D01*
X010575Y016630D02*
X011545Y016630D01*
X011545Y016622D02*
X010575Y016622D01*
X010575Y016613D02*
X011545Y016613D01*
X011545Y016605D02*
X010575Y016605D01*
X010575Y016596D02*
X011545Y016596D01*
X011545Y016588D02*
X010575Y016588D01*
X010575Y016579D02*
X011545Y016579D01*
X011545Y016571D02*
X010575Y016571D01*
X010575Y016562D02*
X011545Y016562D01*
X011545Y016554D02*
X010575Y016554D01*
X010575Y016545D02*
X010865Y016545D01*
X010865Y016553D02*
X010865Y016463D01*
X010575Y016463D01*
X010575Y016943D01*
X010865Y016943D01*
X010865Y016853D01*
X010865Y016870D02*
X010575Y016870D01*
X010575Y016878D02*
X010865Y016878D01*
X010865Y016887D02*
X010575Y016887D01*
X010575Y016895D02*
X010865Y016895D01*
X010865Y016904D02*
X010575Y016904D01*
X010575Y016912D02*
X010865Y016912D01*
X010865Y016921D02*
X010575Y016921D01*
X010575Y016929D02*
X010865Y016929D01*
X010865Y016938D02*
X010575Y016938D01*
X010575Y016536D02*
X010865Y016536D01*
X010865Y016528D02*
X010575Y016528D01*
X010575Y016519D02*
X010865Y016519D01*
X010865Y016511D02*
X010575Y016511D01*
X010575Y016502D02*
X010865Y016502D01*
X010865Y016494D02*
X010575Y016494D01*
X010575Y016485D02*
X010865Y016485D01*
X010865Y016477D02*
X010575Y016477D01*
X010575Y016468D02*
X010865Y016468D01*
X010865Y016553D02*
X011255Y016553D01*
X011255Y016263D01*
X011545Y016263D01*
X011545Y016255D02*
X010575Y016255D01*
X010575Y016263D02*
X010865Y016263D01*
X011255Y016263D01*
X011255Y016272D02*
X011545Y016272D01*
X011545Y016280D02*
X011255Y016280D01*
X011255Y016289D02*
X011545Y016289D01*
X011545Y016297D02*
X011255Y016297D01*
X011255Y016306D02*
X011545Y016306D01*
X011545Y016314D02*
X011255Y016314D01*
X011255Y016323D02*
X011545Y016323D01*
X011545Y016331D02*
X011255Y016331D01*
X011255Y016340D02*
X011545Y016340D01*
X011545Y016349D02*
X011255Y016349D01*
X011255Y016357D02*
X011545Y016357D01*
X011545Y016366D02*
X011255Y016366D01*
X011255Y016374D02*
X011545Y016374D01*
X011545Y016383D02*
X011255Y016383D01*
X011255Y016391D02*
X011545Y016391D01*
X011545Y016400D02*
X011255Y016400D01*
X011255Y016408D02*
X011545Y016408D01*
X011545Y016417D02*
X011255Y016417D01*
X011255Y016425D02*
X011545Y016425D01*
X011545Y016434D02*
X011255Y016434D01*
X011255Y016443D02*
X011545Y016443D01*
X011545Y016451D02*
X011255Y016451D01*
X011255Y016460D02*
X011545Y016460D01*
X011545Y016468D02*
X011255Y016468D01*
X011255Y016477D02*
X011545Y016477D01*
X011545Y016485D02*
X011255Y016485D01*
X011255Y016494D02*
X011545Y016494D01*
X011545Y016502D02*
X011255Y016502D01*
X011255Y016511D02*
X011545Y016511D01*
X011545Y016519D02*
X011255Y016519D01*
X011255Y016528D02*
X011545Y016528D01*
X011545Y016536D02*
X011255Y016536D01*
X011255Y016545D02*
X011545Y016545D01*
X011545Y016246D02*
X010575Y016246D01*
X010575Y016237D02*
X011545Y016237D01*
X011545Y016229D02*
X010575Y016229D01*
X010575Y016220D02*
X011545Y016220D01*
X011545Y016212D02*
X010575Y016212D01*
X010575Y016203D02*
X011545Y016203D01*
X011545Y016195D02*
X010575Y016195D01*
X010575Y016186D02*
X011545Y016186D01*
X011545Y016178D02*
X010575Y016178D01*
X010575Y016169D02*
X011545Y016169D01*
X011542Y016161D02*
X010575Y016161D01*
X010575Y016152D02*
X011534Y016152D01*
X011525Y016144D02*
X010575Y016144D01*
X010575Y016135D02*
X011517Y016135D01*
X011508Y016126D02*
X010575Y016126D01*
X010575Y016118D02*
X011500Y016118D01*
X011491Y016109D02*
X010575Y016109D01*
X010575Y016101D02*
X011483Y016101D01*
X011474Y016092D02*
X010575Y016092D01*
X010575Y016084D02*
X011465Y016084D01*
X011457Y016075D02*
X010575Y016075D01*
X010575Y016067D02*
X011448Y016067D01*
X011440Y016058D02*
X010575Y016058D01*
X010575Y016050D02*
X011431Y016050D01*
X011423Y016041D02*
X010575Y016041D01*
X010575Y016032D02*
X011414Y016032D01*
X011406Y016024D02*
X010575Y016024D01*
X010575Y016015D02*
X011397Y016015D01*
X011389Y016007D02*
X010575Y016007D01*
X010575Y015998D02*
X011380Y015998D01*
X011371Y015990D02*
X010575Y015990D01*
X010575Y015981D02*
X011363Y015981D01*
X010865Y015973D02*
X010575Y015973D01*
X010575Y015964D02*
X010865Y015964D01*
X010865Y015956D02*
X010575Y015956D01*
X010575Y015947D02*
X010865Y015947D01*
X010865Y015938D02*
X010575Y015938D01*
X010575Y015930D02*
X010865Y015930D01*
X010865Y015921D02*
X010575Y015921D01*
X010575Y015913D02*
X010865Y015913D01*
X010865Y015904D02*
X010575Y015904D01*
X010575Y015896D02*
X010865Y015896D01*
X010865Y015887D02*
X010575Y015887D01*
X010575Y015879D02*
X010865Y015879D01*
X010575Y015873D02*
X010575Y016363D01*
X010865Y016363D01*
X010865Y016263D01*
X010865Y016272D02*
X010575Y016272D01*
X010575Y016280D02*
X010865Y016280D01*
X010865Y016289D02*
X010575Y016289D01*
X010575Y016297D02*
X010865Y016297D01*
X010865Y016306D02*
X010575Y016306D01*
X010575Y016314D02*
X010865Y016314D01*
X010865Y016323D02*
X010575Y016323D01*
X010575Y016331D02*
X010865Y016331D01*
X010865Y016340D02*
X010575Y016340D01*
X010575Y016349D02*
X010865Y016349D01*
X010865Y016357D02*
X010575Y016357D01*
D14*
X010563Y012825D03*
X010573Y012825D03*
X010563Y011855D03*
X011303Y011845D03*
X011313Y011845D03*
X011323Y011845D03*
X011333Y011845D03*
X011343Y011845D03*
X011353Y011845D03*
X011363Y011845D03*
X011373Y011845D03*
X011383Y011845D03*
X011393Y011845D03*
X011403Y011845D03*
X011413Y011845D03*
X011423Y011845D03*
X011433Y011845D03*
X011443Y011845D03*
X011453Y011845D03*
X011463Y011845D03*
X011473Y011845D03*
X011483Y011845D03*
X011493Y011845D03*
X011503Y011845D03*
X011513Y011845D03*
X011523Y011845D03*
X011533Y011845D03*
X011543Y011845D03*
X011553Y011845D03*
X011563Y011845D03*
X011573Y011845D03*
X011583Y011845D03*
X011593Y011845D03*
X011603Y011845D03*
X011613Y011845D03*
X011613Y012835D03*
X011603Y012835D03*
X011593Y012835D03*
X011583Y012835D03*
X011573Y012835D03*
X011563Y012835D03*
X011553Y012835D03*
X011543Y012835D03*
X011533Y012835D03*
X011523Y012835D03*
X011513Y012835D03*
X011503Y012835D03*
X011493Y012835D03*
X011483Y012835D03*
X011473Y012835D03*
X011463Y012835D03*
X011453Y012835D03*
X011443Y012835D03*
X011433Y012835D03*
X011423Y012835D03*
X011413Y012835D03*
X011403Y012835D03*
X011393Y012835D03*
X011383Y012835D03*
X011373Y012835D03*
X011363Y012835D03*
X011353Y012835D03*
X011343Y012835D03*
X011333Y012835D03*
X011323Y012835D03*
X011313Y012835D03*
X011303Y012835D03*
D15*
X011463Y012340D03*
X011473Y012340D03*
D16*
X011453Y012340D03*
D17*
X011443Y012340D03*
X011433Y012340D03*
D18*
X011423Y012340D03*
D19*
X011413Y012335D03*
D20*
X011403Y012340D03*
D21*
X011393Y012340D03*
X011383Y012340D03*
D22*
X011373Y012340D03*
D23*
X011363Y012340D03*
X011353Y012340D03*
D24*
X011343Y012340D03*
X011333Y012340D03*
D25*
X011323Y012340D03*
D26*
X011313Y012340D03*
X011303Y012340D03*
D27*
X011293Y011845D03*
X011283Y011845D03*
X011273Y011845D03*
X011263Y011845D03*
X011253Y011845D03*
X011243Y011845D03*
X011233Y011845D03*
X011223Y011845D03*
X011213Y011845D03*
X011203Y011845D03*
X011193Y011845D03*
X011183Y011845D03*
X011173Y011845D03*
X011163Y011845D03*
X011153Y011845D03*
X011143Y011845D03*
X011133Y011845D03*
X011123Y011845D03*
X011113Y011845D03*
X011103Y011845D03*
X011093Y011845D03*
X011083Y011845D03*
X011073Y011845D03*
X011063Y011845D03*
X011053Y011845D03*
X011043Y011845D03*
X011033Y011845D03*
X011023Y011845D03*
X011013Y011845D03*
X011013Y012835D03*
X011023Y012835D03*
X011033Y012835D03*
X011043Y012835D03*
X011053Y012835D03*
X011063Y012835D03*
X011073Y012835D03*
X011083Y012835D03*
X011093Y012835D03*
X011103Y012835D03*
X011113Y012835D03*
X011123Y012835D03*
X011133Y012835D03*
X011143Y012835D03*
X011153Y012835D03*
X011163Y012835D03*
X011173Y012835D03*
X011183Y012835D03*
X011193Y012835D03*
X011203Y012835D03*
X011213Y012835D03*
X011223Y012835D03*
X011233Y012835D03*
X011243Y012835D03*
X011253Y012835D03*
X011263Y012835D03*
X011273Y012835D03*
X011283Y012835D03*
X011293Y012835D03*
D28*
X011293Y012340D03*
D29*
X011283Y012335D03*
D30*
X011273Y012340D03*
D31*
X011263Y012340D03*
X011253Y012340D03*
D32*
X011243Y012340D03*
D33*
X011233Y012340D03*
X011223Y012340D03*
D34*
X011213Y012340D03*
X011203Y012340D03*
D35*
X011193Y012340D03*
D36*
X011183Y012340D03*
X011173Y012340D03*
D37*
X011163Y012340D03*
X011153Y012340D03*
D38*
X011143Y012340D03*
X011133Y012340D03*
D39*
X011123Y012340D03*
D40*
X011113Y012340D03*
X011103Y012340D03*
D41*
X011093Y012340D03*
D42*
X011083Y012340D03*
X011073Y012340D03*
D43*
X011063Y012340D03*
D44*
X011053Y012340D03*
X011043Y012340D03*
D45*
X011033Y012340D03*
X010483Y012850D03*
X010483Y011830D03*
D46*
X010513Y011840D03*
X011013Y012340D03*
X011023Y012340D03*
X010513Y012840D03*
D47*
X010863Y012340D03*
X010873Y012340D03*
X010883Y012340D03*
X010893Y012340D03*
X010903Y012340D03*
X010913Y012340D03*
X010923Y012340D03*
X010933Y012340D03*
X010943Y012340D03*
X010953Y012340D03*
X010963Y012340D03*
X010973Y012340D03*
X010983Y012340D03*
X010993Y012340D03*
X011003Y012340D03*
D48*
X010853Y011990D03*
X010843Y011990D03*
X010683Y011890D03*
X010673Y011890D03*
X010843Y012690D03*
X010853Y012690D03*
X010693Y012790D03*
X010683Y012790D03*
D49*
X010673Y012795D03*
X010663Y012795D03*
X010833Y012695D03*
X010833Y011985D03*
X010663Y011885D03*
D50*
X010653Y011880D03*
X010643Y011880D03*
X010813Y011980D03*
X010823Y011980D03*
X010823Y012700D03*
X010813Y012700D03*
X010653Y012800D03*
X010643Y012800D03*
D51*
X010793Y012755D03*
X010803Y012755D03*
X010803Y011925D03*
X010793Y011925D03*
D52*
X010783Y011920D03*
X010773Y011920D03*
X010783Y012760D03*
D53*
X010773Y012765D03*
X010763Y012765D03*
X010763Y011915D03*
X010753Y011915D03*
D54*
X010743Y011910D03*
X010753Y012770D03*
D55*
X010743Y012775D03*
X010733Y012775D03*
X010733Y011905D03*
X010723Y011905D03*
D56*
X010713Y011900D03*
X010703Y011900D03*
X010713Y012780D03*
X010723Y012780D03*
D57*
X010703Y012785D03*
X010693Y011895D03*
D58*
X010633Y011875D03*
X010623Y011875D03*
X010623Y012805D03*
X010633Y012805D03*
D59*
X010613Y012810D03*
X010613Y011870D03*
D60*
X010603Y011865D03*
X010593Y011865D03*
X010593Y012815D03*
X010603Y012815D03*
D61*
X010583Y012820D03*
X010583Y011860D03*
X010573Y011860D03*
D62*
X010553Y011850D03*
X010543Y011850D03*
X010543Y012830D03*
X010553Y012830D03*
D63*
X010533Y012835D03*
X010523Y012835D03*
X010523Y011845D03*
X010533Y011845D03*
D64*
X010503Y011835D03*
X010493Y011835D03*
X010493Y012845D03*
X010503Y012845D03*
M02*
