G75*
G70*
%OFA0B0*%
%FSLAX24Y24*%
%IPPOS*%
%LPD*%
%AMOC8*
5,1,8,0,0,1.08239X$1,22.5*
%
%ADD10C,0.0050*%
D10*
X001650Y002869D02*
X002595Y002869D01*
X002595Y010900D01*
X001650Y010900D01*
X001650Y002869D01*
X001978Y002662D02*
X002328Y002662D01*
X002153Y002487D01*
X002153Y002721D01*
X002328Y002352D02*
X002328Y002236D01*
X002328Y002294D02*
X002036Y002294D01*
X001978Y002236D01*
X001978Y002177D01*
X002036Y002119D01*
X002607Y010912D02*
X010638Y010912D01*
X010638Y011857D01*
X002607Y011857D01*
X002607Y010912D01*
X002355Y011260D02*
X002297Y011260D01*
X002238Y011318D01*
X002238Y011610D01*
X002180Y011610D02*
X002297Y011610D01*
X002045Y011552D02*
X001987Y011610D01*
X001870Y011610D01*
X001812Y011552D01*
X001812Y011493D01*
X001870Y011435D01*
X001812Y011376D01*
X001812Y011318D01*
X001870Y011260D01*
X001987Y011260D01*
X002045Y011318D01*
X001928Y011435D02*
X001870Y011435D01*
X002355Y011260D02*
X002413Y011318D01*
X010650Y010900D02*
X010650Y002869D01*
X011595Y002869D01*
X011595Y010900D01*
X010650Y010900D01*
X010918Y011047D02*
X010918Y011106D01*
X010976Y011164D01*
X011268Y011164D01*
X011268Y011106D02*
X011268Y011222D01*
X011210Y011357D02*
X011268Y011416D01*
X011268Y011532D01*
X011210Y011591D01*
X011151Y011591D01*
X010918Y011357D01*
X010918Y011591D01*
X010918Y011047D02*
X010976Y010989D01*
M02*
